<mxfile host="app.diagrams.net" modified="2024-04-11T15:31:34.965Z" agent="Mozilla/5.0 (Windows NT 10.0; Win64; x64) AppleWebKit/537.36 (KHTML, like Gecko) Chrome/123.0.0.0 Safari/537.36" etag="Gg0t4GtKMcdWx0orRwuy" version="24.2.1" type="device">
  <diagram name="페이지-1" id="WAVYN6tyCkgmUKeYGm6C">
    <mxGraphModel dx="2227" dy="1865" grid="1" gridSize="10" guides="1" tooltips="1" connect="1" arrows="1" fold="1" page="1" pageScale="1" pageWidth="827" pageHeight="1169" math="0" shadow="0">
      <root>
        <mxCell id="0" />
        <mxCell id="1" parent="0" />
        <mxCell id="C_Q5_pJYa2roq9P-i48x-3" style="edgeStyle=orthogonalEdgeStyle;rounded=0;orthogonalLoop=1;jettySize=auto;html=1;fontSize=15;" edge="1" parent="1" source="C_Q5_pJYa2roq9P-i48x-1" target="C_Q5_pJYa2roq9P-i48x-2">
          <mxGeometry relative="1" as="geometry" />
        </mxCell>
        <mxCell id="C_Q5_pJYa2roq9P-i48x-1" value="&lt;font style=&quot;font-size: 15px;&quot;&gt;입력&lt;/font&gt;&lt;div style=&quot;font-size: 15px;&quot;&gt;&lt;font style=&quot;font-size: 15px;&quot;&gt;문자열이 숨은 문자열&lt;/font&gt;&lt;/div&gt;&lt;div style=&quot;font-size: 15px;&quot;&gt;&lt;font style=&quot;font-size: 15px;&quot;&gt;inputStr&lt;/font&gt;&lt;/div&gt;&lt;div style=&quot;font-size: 15px;&quot;&gt;&lt;font style=&quot;font-size: 15px;&quot;&gt;찾을 문자열&lt;/font&gt;&lt;/div&gt;&lt;div style=&quot;font-size: 15px;&quot;&gt;&lt;font style=&quot;font-size: 15px;&quot;&gt;goalSt&lt;/font&gt;r&lt;/div&gt;" style="shape=parallelogram;html=1;strokeWidth=2;perimeter=parallelogramPerimeter;whiteSpace=wrap;rounded=1;arcSize=12;size=0.23;fontSize=15;" vertex="1" parent="1">
          <mxGeometry x="-15" y="-90" width="200" height="110" as="geometry" />
        </mxCell>
        <mxCell id="C_Q5_pJYa2roq9P-i48x-2" value="&lt;font style=&quot;font-size: 15px;&quot;&gt;필요 변수&lt;/font&gt;&lt;div style=&quot;font-size: 15px;&quot;&gt;&lt;font style=&quot;font-size: 15px;&quot;&gt;찾을 문자열이 시작되는 index(strStartIndex)&lt;/font&gt;&lt;/div&gt;&lt;div style=&quot;font-size: 15px;&quot;&gt;&lt;font style=&quot;font-size: 15px;&quot;&gt;안쪽 반복문이 시작되는 index((forStartIndex)(초기값 -1)&lt;/font&gt;&lt;/div&gt;&lt;div style=&quot;font-size: 15px;&quot;&gt;&lt;font style=&quot;font-size: 15px;&quot;&gt;찾을 문자열의 길이(goalMax)&lt;/font&gt;&lt;/div&gt;" style="rounded=1;whiteSpace=wrap;html=1;absoluteArcSize=1;arcSize=14;strokeWidth=2;fontSize=15;" vertex="1" parent="1">
          <mxGeometry x="-100" y="60" width="370" height="120" as="geometry" />
        </mxCell>
        <mxCell id="C_Q5_pJYa2roq9P-i48x-9" style="edgeStyle=orthogonalEdgeStyle;rounded=0;orthogonalLoop=1;jettySize=auto;html=1;exitX=0.5;exitY=1;exitDx=0;exitDy=0;exitPerimeter=0;fontSize=15;entryX=0.5;entryY=0;entryDx=0;entryDy=0;entryPerimeter=0;" edge="1" parent="1" source="C_Q5_pJYa2roq9P-i48x-4" target="C_Q5_pJYa2roq9P-i48x-12">
          <mxGeometry relative="1" as="geometry">
            <mxPoint x="85" y="370" as="targetPoint" />
            <Array as="points">
              <mxPoint x="85" y="360" />
              <mxPoint x="85" y="360" />
            </Array>
          </mxGeometry>
        </mxCell>
        <mxCell id="C_Q5_pJYa2roq9P-i48x-4" value="" style="strokeWidth=2;html=1;shape=mxgraph.flowchart.start_2;whiteSpace=wrap;fontSize=15;" vertex="1" parent="1">
          <mxGeometry x="35" y="220" width="100" height="100" as="geometry" />
        </mxCell>
        <mxCell id="C_Q5_pJYa2roq9P-i48x-5" style="edgeStyle=orthogonalEdgeStyle;rounded=0;orthogonalLoop=1;jettySize=auto;html=1;entryX=0.5;entryY=0;entryDx=0;entryDy=0;entryPerimeter=0;fontSize=15;" edge="1" parent="1" source="C_Q5_pJYa2roq9P-i48x-2" target="C_Q5_pJYa2roq9P-i48x-4">
          <mxGeometry relative="1" as="geometry" />
        </mxCell>
        <mxCell id="C_Q5_pJYa2roq9P-i48x-6" value="" style="edgeStyle=elbowEdgeStyle;elbow=horizontal;endArrow=classic;html=1;curved=0;rounded=0;endSize=8;startSize=8;fontSize=15;" edge="1" parent="1">
          <mxGeometry width="50" height="50" relative="1" as="geometry">
            <mxPoint x="-146" y="455" as="sourcePoint" />
            <mxPoint x="-121" y="265" as="targetPoint" />
            <Array as="points">
              <mxPoint x="-146" y="325" />
            </Array>
          </mxGeometry>
        </mxCell>
        <mxCell id="C_Q5_pJYa2roq9P-i48x-12" value="inputStr[j] == goalStr[i]" style="strokeWidth=2;html=1;shape=mxgraph.flowchart.decision;whiteSpace=wrap;" vertex="1" parent="1">
          <mxGeometry x="-8" y="400" width="186" height="100" as="geometry" />
        </mxCell>
        <mxCell id="C_Q5_pJYa2roq9P-i48x-18" value="" style="group" vertex="1" connectable="0" parent="1">
          <mxGeometry x="310" y="230" width="340" height="257" as="geometry" />
        </mxCell>
        <mxCell id="C_Q5_pJYa2roq9P-i48x-10" value="&lt;font style=&quot;font-size: 15px;&quot;&gt;for (j = forStartIndex + 1; j &amp;lt; inputStr.length; j++&lt;/font&gt;&lt;div&gt;&lt;span style=&quot;font-size: 15px;&quot;&gt;처음에는 j값이 0이다&lt;/span&gt;&lt;/div&gt;" style="text;html=1;align=center;verticalAlign=middle;resizable=0;points=[];autosize=1;strokeColor=none;fillColor=none;" vertex="1" parent="C_Q5_pJYa2roq9P-i48x-18">
          <mxGeometry width="340" height="50" as="geometry" />
        </mxCell>
        <mxCell id="C_Q5_pJYa2roq9P-i48x-7" value="" style="edgeStyle=elbowEdgeStyle;elbow=horizontal;endArrow=classic;html=1;curved=0;rounded=0;endSize=8;startSize=8;fontSize=15;entryX=1;entryY=0.5;entryDx=0;entryDy=0;entryPerimeter=0;" edge="1" parent="C_Q5_pJYa2roq9P-i48x-18" target="C_Q5_pJYa2roq9P-i48x-4">
          <mxGeometry width="50" height="50" relative="1" as="geometry">
            <mxPoint x="25" y="257" as="sourcePoint" />
            <mxPoint y="67" as="targetPoint" />
            <Array as="points">
              <mxPoint x="25" y="127" />
            </Array>
          </mxGeometry>
        </mxCell>
        <mxCell id="C_Q5_pJYa2roq9P-i48x-22" style="edgeStyle=orthogonalEdgeStyle;rounded=0;orthogonalLoop=1;jettySize=auto;html=1;entryX=0.5;entryY=0;entryDx=0;entryDy=0;" edge="1" parent="1" source="C_Q5_pJYa2roq9P-i48x-19" target="C_Q5_pJYa2roq9P-i48x-21">
          <mxGeometry relative="1" as="geometry" />
        </mxCell>
        <mxCell id="C_Q5_pJYa2roq9P-i48x-19" value="j == 0&lt;div&gt;(goalStr의 첫 글자를 검사 중이라면&lt;/div&gt;" style="strokeWidth=2;html=1;shape=mxgraph.flowchart.decision;whiteSpace=wrap;" vertex="1" parent="1">
          <mxGeometry x="-100" y="570" width="370" height="100" as="geometry" />
        </mxCell>
        <mxCell id="C_Q5_pJYa2roq9P-i48x-20" style="edgeStyle=orthogonalEdgeStyle;rounded=0;orthogonalLoop=1;jettySize=auto;html=1;exitX=0.5;exitY=1;exitDx=0;exitDy=0;exitPerimeter=0;entryX=0.5;entryY=0;entryDx=0;entryDy=0;entryPerimeter=0;" edge="1" parent="1" source="C_Q5_pJYa2roq9P-i48x-12" target="C_Q5_pJYa2roq9P-i48x-19">
          <mxGeometry relative="1" as="geometry" />
        </mxCell>
        <mxCell id="C_Q5_pJYa2roq9P-i48x-21" value="startIndex와 forStartIndex에 현재 j값 저장" style="rounded=1;whiteSpace=wrap;html=1;absoluteArcSize=1;arcSize=14;strokeWidth=2;" vertex="1" parent="1">
          <mxGeometry x="-33.75" y="700" width="237.5" height="100" as="geometry" />
        </mxCell>
      </root>
    </mxGraphModel>
  </diagram>
</mxfile>
